<svg width="84" height="82" viewBox="0 0 84 82" fill="none" xmlns="http://www.w3.org/2000/svg">
<g filter="url(#filter0_dd_3_24)">
<path d="M38.5359 21.3636C40.0755 18.697 43.9245 18.6969 45.4641 21.3636L62.4697 50.8182C64.0093 53.4848 62.0848 56.8182 59.0056 56.8182H24.9944C21.9152 56.8182 19.9907 53.4848 21.5303 50.8182L38.5359 21.3636Z" fill="#D9D9D9"/>
<path d="M37.6699 19.5C39.5944 16.1667 44.4056 16.1667 46.3301 19.5L64.5167 51C66.4412 54.3333 64.0355 58.5 60.1865 58.5H23.8135C19.9645 58.5 17.5588 54.3333 19.4833 51L37.6699 19.5Z" stroke="white"/>
<path d="M44.1548 39.6378C44.098 39.0649 43.8542 38.6198 43.4233 38.3026C42.9924 37.9853 42.4077 37.8267 41.669 37.8267C41.1671 37.8267 40.7434 37.8977 40.3977 38.0398C40.0521 38.1771 39.7869 38.3688 39.6023 38.6151C39.4223 38.8613 39.3324 39.1406 39.3324 39.4531C39.3229 39.7135 39.3774 39.9408 39.4957 40.1349C39.6188 40.3291 39.7869 40.4972 40 40.6392C40.2131 40.7765 40.4593 40.8973 40.7386 41.0014C41.018 41.1009 41.3163 41.1861 41.6335 41.2571L42.9403 41.5696C43.5748 41.7116 44.1572 41.901 44.6875 42.1378C45.2178 42.3745 45.6771 42.6657 46.0653 43.0114C46.4536 43.357 46.7543 43.7642 46.9673 44.233C47.1851 44.7017 47.2964 45.2391 47.3011 45.8452C47.2964 46.7353 47.0691 47.5071 46.6193 48.1605C46.1742 48.8092 45.5303 49.3134 44.6875 49.6733C43.8494 50.0284 42.8385 50.206 41.6548 50.206C40.4806 50.206 39.4579 50.026 38.5866 49.6662C37.7202 49.3063 37.0431 48.7737 36.5554 48.0682C36.0724 47.358 35.8191 46.4796 35.7955 45.4332H38.7713C38.8045 45.9209 38.9441 46.3281 39.1903 46.6548C39.4413 46.9768 39.7751 47.2206 40.1918 47.3864C40.6132 47.5473 41.089 47.6278 41.6193 47.6278C42.1402 47.6278 42.5923 47.5521 42.9759 47.4006C43.3641 47.2491 43.6648 47.0384 43.8778 46.7685C44.0909 46.4986 44.1974 46.1884 44.1974 45.8381C44.1974 45.5114 44.1004 45.2367 43.9062 45.0142C43.7169 44.7917 43.4375 44.6023 43.0682 44.446C42.7036 44.2898 42.2562 44.1477 41.7259 44.0199L40.142 43.6222C38.9157 43.3239 37.9474 42.8575 37.2372 42.223C36.527 41.5885 36.1742 40.7339 36.179 39.6591C36.1742 38.7784 36.4086 38.009 36.8821 37.3509C37.3603 36.6927 38.0161 36.179 38.8494 35.8097C39.6828 35.4403 40.6297 35.2557 41.6903 35.2557C42.7699 35.2557 43.7121 35.4403 44.517 35.8097C45.3267 36.179 45.9564 36.6927 46.4062 37.3509C46.8561 38.009 47.0881 38.7713 47.1023 39.6378H44.1548Z" fill="#78A59D"/>
<path d="M44.1548 39.6378L44.0553 39.6477L44.0643 39.7378H44.1548V39.6378ZM40.3977 38.0398L40.4346 38.1327L40.4357 38.1323L40.3977 38.0398ZM39.6023 38.6151L39.5223 38.5551L39.5215 38.5561L39.6023 38.6151ZM39.3324 39.4531L39.4324 39.4568V39.4531H39.3324ZM39.4957 40.1349L39.4103 40.187L39.4113 40.1885L39.4957 40.1349ZM40 40.6392L39.9445 40.7224L39.9458 40.7233L40 40.6392ZM40.7386 41.0014L40.7037 41.0951L40.7051 41.0956L40.7386 41.0014ZM41.6335 41.2571L41.6568 41.1598L41.6554 41.1595L41.6335 41.2571ZM42.9403 41.5696L42.9171 41.6669L42.9185 41.6672L42.9403 41.5696ZM44.6875 42.1378L44.6467 42.2291L44.6875 42.1378ZM46.0653 43.0114L46.1318 42.9367L46.0653 43.0114ZM46.9673 44.233L46.8763 44.2743L46.8766 44.2751L46.9673 44.233ZM47.3011 45.8452L47.4011 45.8457L47.4011 45.8444L47.3011 45.8452ZM46.6193 48.1605L46.5369 48.1038L46.5369 48.1039L46.6193 48.1605ZM44.6875 49.6733L44.7265 49.7654L44.7268 49.7653L44.6875 49.6733ZM38.5866 49.6662L38.5483 49.7585L38.5485 49.7586L38.5866 49.6662ZM36.5554 48.0682L36.4727 48.1244L36.4731 48.125L36.5554 48.0682ZM35.7955 45.4332V45.3332H35.6932L35.6955 45.4355L35.7955 45.4332ZM38.7713 45.4332L38.8711 45.4265L38.8647 45.3332H38.7713V45.4332ZM39.1903 46.6548L39.1105 46.715L39.1115 46.7163L39.1903 46.6548ZM40.1918 47.3864L40.1548 47.4793L40.1561 47.4798L40.1918 47.3864ZM42.9759 47.4006L42.9395 47.3074L42.9391 47.3076L42.9759 47.4006ZM43.8778 46.7685L43.9563 46.8304L43.8778 46.7685ZM43.9062 45.0142L43.8301 45.079L43.8309 45.0799L43.9062 45.0142ZM43.0682 44.446L43.0288 44.5379L43.0292 44.5381L43.0682 44.446ZM41.7259 44.0199L41.7015 44.1169L41.7024 44.1171L41.7259 44.0199ZM40.142 43.6222L40.1664 43.5252L40.1657 43.525L40.142 43.6222ZM37.2372 42.223L37.1706 42.2976L37.2372 42.223ZM36.179 39.6591L36.279 39.6595L36.279 39.6586L36.179 39.6591ZM36.8821 37.3509L36.8012 37.2921L36.8009 37.2925L36.8821 37.3509ZM44.517 35.8097L44.4753 35.9005L44.4755 35.9006L44.517 35.8097ZM46.4062 37.3509L46.3237 37.4073V37.4073L46.4062 37.3509ZM47.1023 39.6378V39.7378H47.2039L47.2023 39.6361L47.1023 39.6378ZM44.2543 39.6279C44.195 39.0292 43.9381 38.5574 43.4826 38.222L43.364 38.3831C43.7702 38.6821 44.0011 39.1005 44.0553 39.6477L44.2543 39.6279ZM43.4826 38.222C43.0291 37.8881 42.4211 37.7267 41.669 37.7267V37.9267C42.3943 37.9267 42.9558 38.0825 43.364 38.3831L43.4826 38.222ZM41.669 37.7267C41.1583 37.7267 40.7208 37.7989 40.3597 37.9473L40.4357 38.1323C40.766 37.9966 41.176 37.9267 41.669 37.9267V37.7267ZM40.3608 37.9468C40.0016 38.0895 39.7201 38.2913 39.5223 38.5551L39.6823 38.6751C39.8538 38.4464 40.1025 38.2646 40.4346 38.1327L40.3608 37.9468ZM39.5215 38.5561C39.3288 38.8198 39.2324 39.12 39.2324 39.4531H39.4324C39.4324 39.1613 39.5159 38.9027 39.683 38.6741L39.5215 38.5561ZM39.2325 39.4495C39.2224 39.7266 39.2804 39.9738 39.4104 40.187L39.5811 40.0829C39.4744 39.9078 39.4235 39.7005 39.4323 39.4568L39.2325 39.4495ZM39.4113 40.1885C39.5427 40.3957 39.7212 40.5735 39.9445 40.7224L40.0555 40.556C39.8527 40.4208 39.695 40.2624 39.5802 40.0814L39.4113 40.1885ZM39.9458 40.7233C40.1659 40.8651 40.4187 40.9889 40.7037 41.0951L40.7736 40.9077C40.4998 40.8056 40.2602 40.688 40.0542 40.5551L39.9458 40.7233ZM40.7051 41.0956C40.9886 41.1965 41.2909 41.2829 41.6117 41.3547L41.6554 41.1595C41.3417 41.0893 41.0474 41.0052 40.7722 40.9072L40.7051 41.0956ZM41.6103 41.3544L42.9171 41.6669L42.9636 41.4723L41.6568 41.1598L41.6103 41.3544ZM42.9185 41.6672C43.5472 41.8079 44.1232 41.9954 44.6467 42.2291L44.7283 42.0465C44.1912 41.8067 43.6024 41.6153 42.9622 41.472L42.9185 41.6672ZM44.6467 42.2291C45.1687 42.4621 45.6191 42.748 45.9988 43.0861L46.1318 42.9367C45.7351 42.5835 45.2669 42.2869 44.7283 42.0465L44.6467 42.2291ZM45.9988 43.0861C46.3768 43.4225 46.6691 43.8184 46.8763 44.2743L47.0584 44.1916C46.8395 43.71 46.5304 43.2915 46.1318 42.9367L45.9988 43.0861ZM46.8766 44.2751C47.0875 44.7288 47.1965 45.2517 47.2011 45.846L47.4011 45.8444C47.3963 45.2265 47.2828 44.6746 47.058 44.1908L46.8766 44.2751ZM47.2011 45.8446C47.1965 46.7173 46.974 47.4689 46.5369 48.1038L46.7017 48.2172C47.1642 47.5453 47.3963 46.7534 47.4011 45.8457L47.2011 45.8446ZM46.5369 48.1039C46.1042 48.7345 45.4765 49.2277 44.6482 49.5813L44.7268 49.7653C45.5841 49.3992 46.2443 48.8839 46.7018 48.2171L46.5369 48.1039ZM44.6485 49.5812C43.8259 49.9298 42.829 50.106 41.6548 50.106V50.306C42.8481 50.306 43.873 50.127 44.7265 49.7654L44.6485 49.5812ZM41.6548 50.106C40.4906 50.106 39.4814 49.9276 38.6248 49.5738L38.5485 49.7586C39.4344 50.1245 40.4706 50.306 41.6548 50.306V50.106ZM38.625 49.5738C37.7745 49.2206 37.1134 48.6995 36.6377 48.0113L36.4731 48.125C36.9728 48.8478 37.6658 49.392 38.5483 49.7585L38.625 49.5738ZM36.6381 48.012C36.1681 47.3209 35.9188 46.4623 35.8954 45.431L35.6955 45.4355C35.7195 46.4969 35.9767 47.3951 36.4727 48.1244L36.6381 48.012ZM35.7955 45.5332H38.7713V45.3332H35.7955V45.5332ZM38.6715 45.44C38.7057 45.9432 38.8505 46.37 39.1105 46.715L39.2702 46.5946C39.0378 46.2862 38.9032 45.8986 38.8711 45.4265L38.6715 45.44ZM39.1115 46.7163C39.3744 47.0536 39.7233 47.3077 40.1548 47.4793L40.2287 47.2934C39.8269 47.1336 39.5082 46.8999 39.2692 46.5934L39.1115 46.7163ZM40.1561 47.4798C40.5907 47.6458 41.0789 47.7278 41.6193 47.7278V47.5278C41.0991 47.5278 40.6356 47.4489 40.2274 47.2929L40.1561 47.4798ZM41.6193 47.7278C42.1496 47.7278 42.6147 47.6507 43.0126 47.4936L42.9391 47.3076C42.5699 47.4534 42.1307 47.5278 41.6193 47.5278V47.7278ZM43.0122 47.4937C43.4135 47.3371 43.7301 47.117 43.9563 46.8304L43.7994 46.7065C43.5994 46.9597 43.3147 47.161 42.9395 47.3074L43.0122 47.4937ZM43.9563 46.8304C44.1836 46.5425 44.2974 46.2105 44.2974 45.8381H44.0974C44.0974 46.1664 43.9982 46.4546 43.7994 46.7065L43.9563 46.8304ZM44.2974 45.8381C44.2974 45.49 44.1934 45.1912 43.9816 44.9485L43.8309 45.0799C44.0074 45.2823 44.0974 45.5328 44.0974 45.8381H44.2974ZM43.9824 44.9494C43.7799 44.7114 43.4858 44.5141 43.1071 44.3539L43.0292 44.5381C43.3892 44.6904 43.6538 44.8719 43.8301 45.079L43.9824 44.9494ZM43.1076 44.3541C42.7363 44.195 42.2832 44.0514 41.7493 43.9227L41.7024 44.1171C42.2291 44.2441 42.6709 44.3845 43.0288 44.5379L43.1076 44.3541ZM41.7502 43.9229L40.1664 43.5252L40.1177 43.7191L41.7015 44.1169L41.7502 43.9229ZM40.1657 43.525C38.9503 43.2294 37.9985 42.769 37.3038 42.1484L37.1706 42.2976C37.8964 42.946 38.8811 43.4184 40.1184 43.7193L40.1657 43.525ZM37.3038 42.1484C36.6178 41.5356 36.2743 40.7098 36.279 39.6595L36.079 39.6586C36.0741 40.758 36.4361 41.6415 37.1706 42.2976L37.3038 42.1484ZM36.279 39.6586C36.2743 38.7971 36.5032 38.0487 36.9633 37.4093L36.8009 37.2925C36.314 37.9693 36.0741 38.7597 36.079 39.6596L36.279 39.6586ZM36.963 37.4096C37.4297 36.7674 38.0707 36.2641 38.8899 35.9011L38.8089 35.7182C37.9615 36.0938 37.291 36.618 36.8012 37.2921L36.963 37.4096ZM38.8899 35.9011C39.7086 35.5383 40.6414 35.3557 41.6903 35.3557V35.1557C40.618 35.1557 39.6569 35.3424 38.8089 35.7182L38.8899 35.9011ZM41.6903 35.3557C42.7586 35.3557 43.686 35.5384 44.4753 35.9005L44.5587 35.7188C43.7382 35.3423 42.7812 35.1557 41.6903 35.1557V35.3557ZM44.4755 35.9006C45.2706 36.2633 45.8853 36.7659 46.3237 37.4073L46.4888 37.2944C46.0276 36.6195 45.3828 36.0947 44.5585 35.7187L44.4755 35.9006ZM46.3237 37.4073C46.7615 38.0478 46.9884 38.7907 47.0023 39.6394L47.2023 39.6361C47.1878 38.7519 46.9506 37.9701 46.4888 37.2944L46.3237 37.4073ZM47.1023 39.5378H44.1548V39.7378H47.1023V39.5378Z" fill="black"/>
</g>
<mask id="mask0_3_24" style="mask-type:alpha" maskUnits="userSpaceOnUse" x="8" y="62" width="73" height="16">
<path d="M16.1911 63.96C15.2178 63.5467 14.2511 63.34 13.2911 63.34C11.3444 63.34 10.3711 64.06 10.3711 65.5C10.3711 66.1267 10.5911 66.7133 11.0311 67.26C11.4711 67.7933 12.0044 68.2733 12.6311 68.7C13.2578 69.1133 13.8844 69.54 14.5111 69.98C15.1378 70.42 15.6711 70.9467 16.1111 71.56C16.5511 72.1733 16.7711 72.84 16.7711 73.56C16.7711 74.7733 16.3644 75.6933 15.5511 76.32C14.7378 76.9333 13.6111 77.24 12.1711 77.24C10.7444 77.24 9.52443 76.8733 8.51109 76.14L8.99109 75.42C9.95109 76.0467 11.0044 76.36 12.1511 76.36C13.2978 76.36 14.1778 76.1333 14.7911 75.68C15.4044 75.2133 15.7111 74.5467 15.7111 73.68C15.7111 73.08 15.4911 72.5133 15.0511 71.98C14.6111 71.4333 14.0778 70.9467 13.4511 70.52C12.8244 70.08 12.1978 69.6333 11.5711 69.18C10.9444 68.7267 10.4111 68.1867 9.97109 67.56C9.53109 66.9333 9.31109 66.26 9.31109 65.54C9.31109 64.5933 9.65776 63.8467 10.3511 63.3C11.0578 62.74 12.0044 62.46 13.1911 62.46C14.3911 62.46 15.5044 62.7 16.5311 63.18L16.1911 63.96ZM20.7086 77V64.1C21.7086 63.9933 22.7619 63.94 23.8686 63.94C24.9886 63.94 25.9353 64.24 26.7086 64.84C27.4819 65.4267 27.8686 66.32 27.8686 67.52C27.8686 68.72 27.3419 69.7067 26.2886 70.48C25.2353 71.24 23.9886 71.62 22.5486 71.62C22.4819 71.62 22.4086 71.62 22.3286 71.62V70.98C22.3819 70.98 22.4286 70.98 22.4686 70.98C23.6553 70.98 24.6886 70.6667 25.5686 70.04C26.4486 69.4133 26.8886 68.6 26.8886 67.6C26.8886 66.6 26.5753 65.8733 25.9486 65.42C25.3353 64.9667 24.5219 64.74 23.5086 64.74C22.9753 64.74 22.3486 64.7667 21.6286 64.82V77H20.7086ZM31.275 77V64.02H37.335V64.82H32.195V69.54H36.835V70.32H32.195V76.16H37.535V77H31.275ZM41.8564 72.5L39.9964 77H39.0564L44.4964 63.94H45.0364L50.5164 77H49.4964L47.6164 72.5H41.8564ZM44.7164 65.42C44.5164 66.02 44.3364 66.52 44.1764 66.92L42.1764 71.72H47.2964L45.3164 66.94C45.0097 66.1933 44.8097 65.6867 44.7164 65.42ZM61.03 64.02L55.49 70.28C57.6767 72.9333 59.17 74.6133 59.97 75.32C60.7833 76.0267 61.59 76.4267 62.39 76.52L62.37 77.14C61.6233 77.1267 61.0167 77.02 60.55 76.82C60.0833 76.6067 59.67 76.3267 59.31 75.98C58.95 75.6333 58.1767 74.7867 56.99 73.44C55.8167 72.08 54.9367 71.04 54.35 70.32L59.93 64.02H61.03ZM54.07 64.02V77H53.15V64.02H54.07ZM64.4781 77V64.02H65.3981V76.16H71.3581V77H64.4781ZM74.0875 77V64.02H80.1475V64.82H75.0075V69.54H79.6475V70.32H75.0075V76.16H80.3475V77H74.0875Z" fill="white"/>
</mask>
<g mask="url(#mask0_3_24)">
<rect x="2" y="69" width="79" height="6" fill="#4F9A76"/>
</g>
<mask id="mask1_3_24" style="mask-type:alpha" maskUnits="userSpaceOnUse" x="8" y="62" width="73" height="16">
<path d="M16.1911 63.96C15.2178 63.5467 14.2511 63.34 13.2911 63.34C11.3444 63.34 10.3711 64.06 10.3711 65.5C10.3711 66.1267 10.5911 66.7133 11.0311 67.26C11.4711 67.7933 12.0044 68.2733 12.6311 68.7C13.2578 69.1133 13.8844 69.54 14.5111 69.98C15.1378 70.42 15.6711 70.9467 16.1111 71.56C16.5511 72.1733 16.7711 72.84 16.7711 73.56C16.7711 74.7733 16.3644 75.6933 15.5511 76.32C14.7378 76.9333 13.6111 77.24 12.1711 77.24C10.7444 77.24 9.52443 76.8733 8.51109 76.14L8.99109 75.42C9.95109 76.0467 11.0044 76.36 12.1511 76.36C13.2978 76.36 14.1778 76.1333 14.7911 75.68C15.4044 75.2133 15.7111 74.5467 15.7111 73.68C15.7111 73.08 15.4911 72.5133 15.0511 71.98C14.6111 71.4333 14.0778 70.9467 13.4511 70.52C12.8244 70.08 12.1978 69.6333 11.5711 69.18C10.9444 68.7267 10.4111 68.1867 9.97109 67.56C9.53109 66.9333 9.31109 66.26 9.31109 65.54C9.31109 64.5933 9.65776 63.8467 10.3511 63.3C11.0578 62.74 12.0044 62.46 13.1911 62.46C14.3911 62.46 15.5044 62.7 16.5311 63.18L16.1911 63.96ZM20.7086 77V64.1C21.7086 63.9933 22.7619 63.94 23.8686 63.94C24.9886 63.94 25.9353 64.24 26.7086 64.84C27.4819 65.4267 27.8686 66.32 27.8686 67.52C27.8686 68.72 27.3419 69.7067 26.2886 70.48C25.2353 71.24 23.9886 71.62 22.5486 71.62C22.4819 71.62 22.4086 71.62 22.3286 71.62V70.98C22.3819 70.98 22.4286 70.98 22.4686 70.98C23.6553 70.98 24.6886 70.6667 25.5686 70.04C26.4486 69.4133 26.8886 68.6 26.8886 67.6C26.8886 66.6 26.5753 65.8733 25.9486 65.42C25.3353 64.9667 24.5219 64.74 23.5086 64.74C22.9753 64.74 22.3486 64.7667 21.6286 64.82V77H20.7086ZM31.275 77V64.02H37.335V64.82H32.195V69.54H36.835V70.32H32.195V76.16H37.535V77H31.275ZM41.8564 72.5L39.9964 77H39.0564L44.4964 63.94H45.0364L50.5164 77H49.4964L47.6164 72.5H41.8564ZM44.7164 65.42C44.5164 66.02 44.3364 66.52 44.1764 66.92L42.1764 71.72H47.2964L45.3164 66.94C45.0097 66.1933 44.8097 65.6867 44.7164 65.42ZM61.03 64.02L55.49 70.28C57.6767 72.9333 59.17 74.6133 59.97 75.32C60.7833 76.0267 61.59 76.4267 62.39 76.52L62.37 77.14C61.6233 77.1267 61.0167 77.02 60.55 76.82C60.0833 76.6067 59.67 76.3267 59.31 75.98C58.95 75.6333 58.1767 74.7867 56.99 73.44C55.8167 72.08 54.9367 71.04 54.35 70.32L59.93 64.02H61.03ZM54.07 64.02V77H53.15V64.02H54.07ZM64.4781 77V64.02H65.3981V76.16H71.3581V77H64.4781ZM74.0875 77V64.02H80.1475V64.82H75.0075V69.54H79.6475V70.32H75.0075V76.16H80.3475V77H74.0875Z" fill="white"/>
</mask>
<g mask="url(#mask1_3_24)">
<rect x="1.92208" y="60" width="79" height="7" fill="#4F9A76"/>
</g>
<mask id="mask2_3_24" style="mask-type:alpha" maskUnits="userSpaceOnUse" x="8" y="62" width="73" height="16">
<path d="M16.1911 63.96C15.2178 63.5467 14.2511 63.34 13.2911 63.34C11.3444 63.34 10.3711 64.06 10.3711 65.5C10.3711 66.1267 10.5911 66.7133 11.0311 67.26C11.4711 67.7933 12.0044 68.2733 12.6311 68.7C13.2578 69.1133 13.8844 69.54 14.5111 69.98C15.1378 70.42 15.6711 70.9467 16.1111 71.56C16.5511 72.1733 16.7711 72.84 16.7711 73.56C16.7711 74.7733 16.3644 75.6933 15.5511 76.32C14.7378 76.9333 13.6111 77.24 12.1711 77.24C10.7444 77.24 9.52443 76.8733 8.51109 76.14L8.99109 75.42C9.95109 76.0467 11.0044 76.36 12.1511 76.36C13.2978 76.36 14.1778 76.1333 14.7911 75.68C15.4044 75.2133 15.7111 74.5467 15.7111 73.68C15.7111 73.08 15.4911 72.5133 15.0511 71.98C14.6111 71.4333 14.0778 70.9467 13.4511 70.52C12.8244 70.08 12.1978 69.6333 11.5711 69.18C10.9444 68.7267 10.4111 68.1867 9.97109 67.56C9.53109 66.9333 9.31109 66.26 9.31109 65.54C9.31109 64.5933 9.65776 63.8467 10.3511 63.3C11.0578 62.74 12.0044 62.46 13.1911 62.46C14.3911 62.46 15.5044 62.7 16.5311 63.18L16.1911 63.96ZM20.7086 77V64.1C21.7086 63.9933 22.7619 63.94 23.8686 63.94C24.9886 63.94 25.9353 64.24 26.7086 64.84C27.4819 65.4267 27.8686 66.32 27.8686 67.52C27.8686 68.72 27.3419 69.7067 26.2886 70.48C25.2353 71.24 23.9886 71.62 22.5486 71.62C22.4819 71.62 22.4086 71.62 22.3286 71.62V70.98C22.3819 70.98 22.4286 70.98 22.4686 70.98C23.6553 70.98 24.6886 70.6667 25.5686 70.04C26.4486 69.4133 26.8886 68.6 26.8886 67.6C26.8886 66.6 26.5753 65.8733 25.9486 65.42C25.3353 64.9667 24.5219 64.74 23.5086 64.74C22.9753 64.74 22.3486 64.7667 21.6286 64.82V77H20.7086ZM31.275 77V64.02H37.335V64.82H32.195V69.54H36.835V70.32H32.195V76.16H37.535V77H31.275ZM41.8564 72.5L39.9964 77H39.0564L44.4964 63.94H45.0364L50.5164 77H49.4964L47.6164 72.5H41.8564ZM44.7164 65.42C44.5164 66.02 44.3364 66.52 44.1764 66.92L42.1764 71.72H47.2964L45.3164 66.94C45.0097 66.1933 44.8097 65.6867 44.7164 65.42ZM61.03 64.02L55.49 70.28C57.6767 72.9333 59.17 74.6133 59.97 75.32C60.7833 76.0267 61.59 76.4267 62.39 76.52L62.37 77.14C61.6233 77.1267 61.0167 77.02 60.55 76.82C60.0833 76.6067 59.67 76.3267 59.31 75.98C58.95 75.6333 58.1767 74.7867 56.99 73.44C55.8167 72.08 54.9367 71.04 54.35 70.32L59.93 64.02H61.03ZM54.07 64.02V77H53.15V64.02H54.07ZM64.4781 77V64.02H65.3981V76.16H71.3581V77H64.4781ZM74.0875 77V64.02H80.1475V64.82H75.0075V69.54H79.6475V70.32H75.0075V76.16H80.3475V77H74.0875Z" fill="white"/>
</mask>
<g mask="url(#mask2_3_24)">
<rect x="8.07792" y="76" width="79" height="3" fill="#4F9A76"/>
</g>
<defs>
<filter id="filter0_dd_3_24" x="9.30526" y="0.5" width="63.3895" height="66.5" filterUnits="userSpaceOnUse" color-interpolation-filters="sRGB">
<feFlood flood-opacity="0" result="BackgroundImageFix"/>
<feColorMatrix in="SourceAlpha" type="matrix" values="0 0 0 0 0 0 0 0 0 0 0 0 0 0 0 0 0 0 127 0" result="hardAlpha"/>
<feOffset dx="-1" dy="-8"/>
<feGaussianBlur stdDeviation="4"/>
<feComposite in2="hardAlpha" operator="out"/>
<feColorMatrix type="matrix" values="0 0 0 0 1 0 0 0 0 1 0 0 0 0 1 0 0 0 0.25 0"/>
<feBlend mode="normal" in2="BackgroundImageFix" result="effect1_dropShadow_3_24"/>
<feColorMatrix in="SourceAlpha" type="matrix" values="0 0 0 0 0 0 0 0 0 0 0 0 0 0 0 0 0 0 127 0" result="hardAlpha"/>
<feOffset dy="4"/>
<feGaussianBlur stdDeviation="2"/>
<feComposite in2="hardAlpha" operator="out"/>
<feColorMatrix type="matrix" values="0 0 0 0 0 0 0 0 0 0 0 0 0 0 0 0 0 0 0.25 0"/>
<feBlend mode="normal" in2="effect1_dropShadow_3_24" result="effect2_dropShadow_3_24"/>
<feBlend mode="normal" in="SourceGraphic" in2="effect2_dropShadow_3_24" result="shape"/>
</filter>
</defs>
</svg>
