<svg width="65" height="95" viewBox="0 0 65 95" fill="none" xmlns="http://www.w3.org/2000/svg">
<rect x="11" y="84" width="42.79" height="10.5" rx="5.25" fill="#45B46A"/>
<rect x="26" y="68" width="13" height="20" fill="#45B46A"/>
<path d="M60.125 39.5C62.8174 39.5 65.0375 41.6948 64.6352 44.3569C63.6041 51.179 60.4192 57.5427 55.481 62.481C49.386 68.5759 41.1195 72 32.5 72C23.8805 72 15.614 68.5759 9.51903 62.481C4.5808 57.5427 1.39586 51.179 0.364829 44.3569C-0.0375061 41.6948 2.18261 39.5 4.875 39.5V39.5C7.56739 39.5 9.69767 41.7072 10.2703 44.338C11.1905 48.566 13.3061 52.4795 16.4133 55.5867C20.6798 59.8531 26.4663 62.25 32.5 62.25C38.5337 62.25 44.3202 59.8531 48.5867 55.5867C51.6939 52.4795 53.8095 48.566 54.7297 44.338C55.3023 41.7072 57.4326 39.5 60.125 39.5V39.5Z" fill="#45B46A"/>
<rect x="20" width="24" height="54" rx="12" fill="#45B46A"/>
</svg>
