<svg width="48" height="48" viewBox="0 0 48 48" fill="none" xmlns="http://www.w3.org/2000/svg">
<path fill-rule="evenodd" clip-rule="evenodd" d="M23.3503 17.2275C21.2197 15.2416 17.8051 17.213 18.4596 20.0511C18.572 20.5386 18.2883 21.03 17.8099 21.1764C15.0248 22.0286 15.0248 25.9714 17.8099 26.8236C18.2883 26.97 18.572 27.4614 18.4596 27.9489C17.8051 30.787 21.2197 32.7584 23.3503 30.7726C23.7163 30.4315 24.2837 30.4315 24.6497 30.7726C26.7803 32.7584 30.1948 30.787 29.5403 27.9489C29.4279 27.4615 29.7116 26.97 30.19 26.8236C32.9751 25.9714 32.9751 22.0286 30.19 21.1764C29.7116 21.03 29.4279 20.5386 29.5403 20.0511C30.1948 17.213 26.7803 15.2416 24.6497 17.2275C24.2837 17.5686 23.7163 17.5686 23.3503 17.2275ZM20.4085 19.6017C20.1973 18.6858 21.2991 18.0497 21.9867 18.6905C23.1208 19.7476 24.8792 19.7476 26.0133 18.6905C26.7008 18.0497 27.8027 18.6858 27.5915 19.6017C27.2431 21.1124 28.1223 22.6352 29.6048 23.0889C30.5035 23.3639 30.5035 24.6362 29.6048 24.9112C28.1223 25.3648 27.2431 26.8877 27.5915 28.3984C27.8027 29.3142 26.7008 29.9503 26.0133 29.3095C24.8792 28.2525 23.1208 28.2525 21.9867 29.3095C21.2991 29.9503 20.1973 29.3142 20.4085 28.3984C20.7568 26.8877 19.8776 25.3648 18.3952 24.9112C17.4964 24.6362 17.4964 23.3639 18.3952 23.0889C19.8776 22.6352 20.7568 21.1124 20.4085 19.6017ZM24.866 23.5C25.1421 23.9783 24.9783 24.5899 24.5 24.866C24.0217 25.1422 23.4101 24.9783 23.134 24.5C22.8578 24.0217 23.0217 23.4101 23.5 23.134C23.9783 22.8579 24.5899 23.0217 24.866 23.5ZM26.5981 22.5C27.4265 23.9349 26.9349 25.7697 25.5 26.5981C24.0651 27.4265 22.2303 26.9349 21.4019 25.5C20.5735 24.0651 21.0651 22.2304 22.5 21.4019C23.9349 20.5735 25.7696 21.0651 26.5981 22.5Z" fill="#EAEAEA"/>
</svg>
